<svg xmlns="http://www.w3.org/2000/svg" xmlns:xlink="http://www.w3.org/1999/xlink" viewBox="0 0 200.57 58.79"><defs><style>.cls-1{fill:none;}.cls-2,.cls-3,.cls-4{fill:#fff;}.cls-3{font-size:16.04px;}.cls-3,.cls-4{font-family:Helvetica-Light, Helvetica Light;font-weight:300;}.cls-4{font-size:14.88px;}.cls-5{clip-path:url(#clip-path);}.cls-6{fill:url(#linear-gradient);}.cls-7{clip-path:url(#clip-path-2);}.cls-8{clip-path:url(#clip-path-3);}.cls-9{fill:url(#linear-gradient-2);}.cls-10{clip-path:url(#clip-path-4);}.cls-11{fill:url(#linear-gradient-3);}.cls-12{clip-path:url(#clip-path-5);}.cls-13{clip-path:url(#clip-path-6);}.cls-14{fill:url(#linear-gradient-4);}.cls-15{clip-path:url(#clip-path-7);}.cls-16{clip-path:url(#clip-path-8);}.cls-17{fill:url(#linear-gradient-5);}.cls-18{clip-path:url(#clip-path-9);}.cls-19{clip-path:url(#clip-path-10);}.cls-20{fill:url(#linear-gradient-6);}.cls-21{fill:url(#linear-gradient-7);}.cls-22{clip-path:url(#clip-path-12);}.cls-23{fill:url(#linear-gradient-8);}.cls-24{fill:url(#linear-gradient-9);}.cls-25{clip-path:url(#clip-path-14);}.cls-26{fill:url(#linear-gradient-10);}.cls-27{fill:url(#linear-gradient-11);}.cls-28{clip-path:url(#clip-path-16);}.cls-29{fill:url(#linear-gradient-12);}.cls-30{clip-path:url(#clip-path-17);}.cls-31{clip-path:url(#clip-path-18);}.cls-32{fill:url(#linear-gradient-13);}.cls-33{clip-path:url(#clip-path-19);}</style><clipPath id="clip-path" transform="translate(0)"><path class="cls-1" d="M6.06,21.42,0,27.48l19,19A10.55,10.55,0,0,0,26.49,50a12.6,12.6,0,0,0,9.89-3.32l-6.32-6.3a4.71,4.71,0,0,1-5.77-.68L12.21,27.57,27.57,12.21,39.65,24.29a4.72,4.72,0,0,1,0,6.67l-2.41,2.41,6.26,6.18,2.82-2.83A12.61,12.61,0,0,0,50,26.53,10.59,10.59,0,0,0,46.52,19l-19-19Z"/></clipPath><linearGradient id="linear-gradient" x1="-327.77" y1="114.79" x2="-326.77" y2="114.79" gradientTransform="matrix(49.73, 0, 0, -49.73, 16298.36, 5733.03)" gradientUnits="userSpaceOnUse"><stop offset="0" stop-color="#2b387d"/><stop offset="0.11" stop-color="#214a8f"/><stop offset="0.3" stop-color="#1562a6"/><stop offset="0.51" stop-color="#0c73b7"/><stop offset="0.73" stop-color="#077dc1"/><stop offset="1" stop-color="#0580c4"/></linearGradient><clipPath id="clip-path-2" transform="translate(0)"><path class="cls-2" d="M6.06,21.42,0,27.48l19,19A10.55,10.55,0,0,0,26.49,50a12.6,12.6,0,0,0,9.89-3.32l-6.32-6.3a4.71,4.71,0,0,1-5.77-.68L12.21,27.57,27.57,12.21,39.65,24.29a4.72,4.72,0,0,1,0,6.67l-2.41,2.41,6.26,6.18,2.82-2.83A12.61,12.61,0,0,0,50,26.53,10.59,10.59,0,0,0,46.52,19l-19-19Z"/></clipPath><clipPath id="clip-path-3" transform="translate(0)"><path class="cls-1" d="M37.29,8.87l6.11,6,2.68-2.68L61.43,27.57,49.36,39.65a4.72,4.72,0,0,1-6.67,0L34,31a4.72,4.72,0,0,1,0-6.67l2.36-2.36-6.08-6L27.13,19a10.61,10.61,0,0,0-3.45,7.49,12.64,12.64,0,0,0,3.64,10.19l9.6,9.6A12.6,12.6,0,0,0,47.16,50a10.55,10.55,0,0,0,7.45-3.43l19-19-6.07-6.06L46.17,0Z"/></clipPath><linearGradient id="linear-gradient-2" x1="-327.8" y1="114.49" x2="-326.8" y2="114.49" gradientTransform="translate(16421.59 -5701.82) scale(50.02)" gradientUnits="userSpaceOnUse"><stop offset="0" stop-color="#f9a92e"/><stop offset="0.22" stop-color="#f5a62e"/><stop offset="0.45" stop-color="#e99e2d"/><stop offset="0.67" stop-color="#d5912c"/><stop offset="0.9" stop-color="#b97e2b"/><stop offset="1" stop-color="#a9742a"/></linearGradient><clipPath id="clip-path-4" transform="translate(0)"><path class="cls-1" d="M86.2,18.11H96.89a3,3,0,0,1,3,2.95v7.69a3,3,0,0,1-3,2.95H86.2Zm-7.91-7.8v29.2H98.53a8,8,0,0,0,5.78-2.13A9.48,9.48,0,0,0,107.82,30V19.81a9.47,9.47,0,0,0-3.49-7.35,7.92,7.92,0,0,0-5.8-2.15Z"/></clipPath><linearGradient id="linear-gradient-3" x1="-323.64" y1="114.9" x2="-322.64" y2="114.9" gradientTransform="matrix(29.52, 0, 0, -29.52, 9633.02, 3416.96)" xlink:href="#linear-gradient"/><clipPath id="clip-path-5" transform="translate(0)"><path class="cls-2" d="M86.2,18.11H96.89a3,3,0,0,1,3,2.95v7.69a3,3,0,0,1-3,2.95H86.2Zm-7.91-7.8v29.2H98.53a8,8,0,0,0,5.78-2.13A9.48,9.48,0,0,0,107.82,30V19.81a9.47,9.47,0,0,0-3.49-7.35,7.92,7.92,0,0,0-5.8-2.15Z"/></clipPath><clipPath id="clip-path-6" transform="translate(0)"><path class="cls-1" d="M127.11,18.17h10.7a2.94,2.94,0,0,1,2.94,2.95v7.69a2.94,2.94,0,0,1-2.94,3h-10.7Zm-7.9-7.81v29.2h20.23a8,8,0,0,0,5.78-2.13,9.47,9.47,0,0,0,3.51-7.37V19.86a9.5,9.5,0,0,0-3.48-7.35,8,8,0,0,0-5.81-2.15Z"/></clipPath><linearGradient id="linear-gradient-4" x1="-323.64" y1="114.9" x2="-322.64" y2="114.9" gradientTransform="matrix(29.52, 0, 0, -29.52, 9673.93, 3417.02)" xlink:href="#linear-gradient"/><clipPath id="clip-path-7" transform="translate(0)"><path class="cls-2" d="M127.11,18.17h10.7a2.94,2.94,0,0,1,2.94,2.95v7.69a2.94,2.94,0,0,1-2.94,3h-10.7Zm-7.9-7.81v29.2h20.23a8,8,0,0,0,5.78-2.13,9.47,9.47,0,0,0,3.51-7.37V19.86a9.5,9.5,0,0,0-3.48-7.35,8,8,0,0,0-5.81-2.15Z"/></clipPath><clipPath id="clip-path-8" transform="translate(0)"><rect class="cls-1" x="109.52" y="10.32" width="7.98" height="29.28"/></clipPath><linearGradient id="linear-gradient-5" x1="-296.18" y1="115.59" x2="-295.18" y2="115.59" gradientTransform="matrix(7.98, 0, 0, -7.98, 2472.1, 947.02)" xlink:href="#linear-gradient"/><clipPath id="clip-path-9" transform="translate(0)"><rect class="cls-2" x="109.52" y="10.32" width="7.98" height="29.28"/></clipPath><clipPath id="clip-path-10" transform="translate(0)"><path class="cls-1" d="M150.92,12.16a.44.44,0,0,0-.48.4v5.78a.44.44,0,0,0,.48.41h18.62a.44.44,0,0,0,.48-.41V12.56a.44.44,0,0,0-.48-.4Z"/></clipPath><linearGradient id="linear-gradient-6" x1="-318.48" y1="115.03" x2="-317.48" y2="115.03" gradientTransform="matrix(19.59, 0, 0, -19.59, 6388.5, 2268.47)" xlink:href="#linear-gradient-2"/><linearGradient id="linear-gradient-7" x1="-318.48" y1="115.03" x2="-317.48" y2="115.03" gradientTransform="matrix(19.59, 0, 0, -19.59, 6388.5, 2268.47)" xlink:href="#linear-gradient-2"/><clipPath id="clip-path-12" transform="translate(0)"><path class="cls-1" d="M152.63,21.57a.45.45,0,0,0-.49.41v5.78a.45.45,0,0,0,.49.4h18.61a.45.45,0,0,0,.49-.4V22a.45.45,0,0,0-.49-.41Z"/></clipPath><linearGradient id="linear-gradient-8" x1="-318.48" y1="115.03" x2="-317.48" y2="115.03" gradientTransform="matrix(19.59, 0, 0, -19.59, 6390.21, 2277.88)" xlink:href="#linear-gradient-2"/><linearGradient id="linear-gradient-9" x1="-318.48" y1="115.03" x2="-317.48" y2="115.03" gradientTransform="matrix(19.59, 0, 0, -19.59, 6390.21, 2277.88)" xlink:href="#linear-gradient-2"/><clipPath id="clip-path-14" transform="translate(0)"><path class="cls-1" d="M150.92,31.27a.44.44,0,0,0-.48.4v5.79a.44.44,0,0,0,.48.4h18.62a.44.44,0,0,0,.48-.4V31.67a.44.44,0,0,0-.48-.4Z"/></clipPath><linearGradient id="linear-gradient-10" x1="-318.48" y1="115.03" x2="-317.48" y2="115.03" gradientTransform="matrix(19.59, 0, 0, -19.59, 6388.5, 2287.58)" xlink:href="#linear-gradient-2"/><linearGradient id="linear-gradient-11" x1="-318.48" y1="115.03" x2="-317.48" y2="115.03" gradientTransform="matrix(19.59, 0, 0, -19.59, 6388.5, 2287.58)" xlink:href="#linear-gradient-2"/><clipPath id="clip-path-16" transform="translate(0)"><polygon class="cls-1" points="171.65 10.45 190.65 39.71 200.16 39.71 181.16 10.45 171.65 10.45"/></clipPath><linearGradient id="linear-gradient-12" x1="-323.28" y1="114.9" x2="-322.28" y2="114.9" gradientTransform="matrix(28.51, 0, 0, -28.51, 9389.33, 3301.39)" gradientUnits="userSpaceOnUse"><stop offset="0" stop-color="#273274"/><stop offset="0.42" stop-color="#165a9d"/><stop offset="0.79" stop-color="#0a76b9"/><stop offset="1" stop-color="#0580c4"/></linearGradient><clipPath id="clip-path-17" transform="translate(0)"><polygon class="cls-2" points="171.65 10.45 190.65 39.71 200.16 39.71 181.16 10.45 171.65 10.45"/></clipPath><clipPath id="clip-path-18" transform="translate(0)"><polygon class="cls-1" points="191.05 10.35 171.99 39.7 181.5 39.71 200.57 10.35 191.05 10.35"/></clipPath><linearGradient id="linear-gradient-13" x1="-323.3" y1="114.9" x2="-322.3" y2="114.9" gradientTransform="matrix(28.57, 0, 0, -28.57, 9410.15, 3308.37)" gradientUnits="userSpaceOnUse"><stop offset="0" stop-color="#273274"/><stop offset="0.11" stop-color="#204285"/><stop offset="0.33" stop-color="#145da0"/><stop offset="0.55" stop-color="#0c71b4"/><stop offset="0.77" stop-color="#077cc0"/><stop offset="1" stop-color="#0580c4"/></linearGradient><clipPath id="clip-path-19" transform="translate(0)"><polygon class="cls-2" points="191.05 10.35 181.6 24.9 171.99 39.7 181.5 39.71 200.57 10.35 191.05 10.35"/></clipPath></defs><title>Asset 6</title><g id="Layer_2" data-name="Layer 2"><g id="Layer_1-2" data-name="Layer 1"><text class="cls-3" transform="translate(77.41 54.78)">D</text><text class="cls-4" transform="translate(89.94 54.78)">ecide </text><text class="cls-3" transform="translate(136.57 54.78)">D</text><text class="cls-4" transform="translate(149.1 54.78)">ifferent</text><g class="cls-5"><rect class="cls-6" width="50.32" height="50.31"/></g><path class="cls-2" d="M6.06,21.42,0,27.48l19,19A10.55,10.55,0,0,0,26.49,50a12.6,12.6,0,0,0,9.89-3.32l-6.32-6.3a4.71,4.71,0,0,1-5.77-.68L12.21,27.57,27.57,12.21,39.65,24.29a4.72,4.72,0,0,1,0,6.67l-2.41,2.41,6.26,6.18,2.82-2.83A12.61,12.61,0,0,0,50,26.53,10.59,10.59,0,0,0,46.52,19l-19-19Z" transform="translate(0)"/><g class="cls-7"><rect class="cls-2" width="50.32" height="50.31"/></g><g class="cls-8"><rect class="cls-9" x="23.32" width="50.32" height="50.33"/></g><g class="cls-10"><rect class="cls-11" x="78.3" y="10.31" width="29.52" height="29.2"/></g><path class="cls-2" d="M86.2,18.11H96.89a3,3,0,0,1,3,2.95v7.69a3,3,0,0,1-3,2.95H86.2Zm-7.91-7.8v29.2H98.53a8,8,0,0,0,5.78-2.13A9.48,9.48,0,0,0,107.82,30V19.81a9.47,9.47,0,0,0-3.49-7.35,7.92,7.92,0,0,0-5.8-2.15Z" transform="translate(0)"/><g class="cls-12"><rect class="cls-2" x="78.3" y="10.31" width="29.52" height="29.2"/></g><g class="cls-13"><rect class="cls-14" x="119.21" y="10.36" width="29.52" height="29.2"/></g><path class="cls-2" d="M127.11,18.17h10.7a2.94,2.94,0,0,1,2.94,2.95v7.69a2.94,2.94,0,0,1-2.94,3h-10.7Zm-7.9-7.81v29.2h20.23a8,8,0,0,0,5.78-2.13,9.47,9.47,0,0,0,3.51-7.37V19.86a9.5,9.5,0,0,0-3.48-7.35,8,8,0,0,0-5.81-2.15Z" transform="translate(0)"/><g class="cls-15"><rect class="cls-2" x="119.21" y="10.36" width="29.52" height="29.2"/></g><g class="cls-16"><rect class="cls-17" x="109.52" y="10.32" width="7.98" height="29.28"/></g><rect class="cls-2" x="109.52" y="10.32" width="7.98" height="29.28"/><g class="cls-18"><rect class="cls-2" x="109.52" y="10.32" width="7.98" height="29.28"/></g><g class="cls-19"><rect class="cls-20" x="150.44" y="12.16" width="19.59" height="6.59"/></g><g class="cls-19"><rect class="cls-21" x="150.44" y="12.16" width="19.59" height="6.59"/></g><g class="cls-22"><rect class="cls-23" x="152.14" y="21.57" width="19.59" height="6.59"/></g><g class="cls-22"><rect class="cls-24" x="152.14" y="21.57" width="19.59" height="6.59"/></g><g class="cls-25"><rect class="cls-26" x="150.44" y="31.27" width="19.59" height="6.59"/></g><g class="cls-25"><rect class="cls-27" x="150.44" y="31.27" width="19.59" height="6.59"/></g><g class="cls-28"><rect class="cls-29" x="171.65" y="10.45" width="28.51" height="29.26"/></g><polygon class="cls-2" points="171.65 10.45 190.65 39.71 200.16 39.71 181.16 10.45 171.65 10.45"/><g class="cls-30"><rect class="cls-2" x="171.65" y="10.45" width="28.51" height="29.26"/></g><g class="cls-31"><rect class="cls-32" x="171.99" y="10.35" width="28.57" height="29.36"/></g><polygon class="cls-2" points="191.05 10.35 181.6 24.9 171.99 39.7 181.5 39.71 200.57 10.35 191.05 10.35"/><g class="cls-33"><rect class="cls-2" x="171.99" y="10.35" width="28.57" height="29.36"/></g></g></g></svg>